<svg width="1440" height="516" viewBox="0 0 1440 516" fill="none" xmlns="http://www.w3.org/2000/svg">
<path d="M267.704 500.001C258.575 499.999 249.491 501.28 240.719 503.808C231.817 506.314 222.166 508.977 211.767 511.795C199.452 514.799 186.802 516.205 174.128 515.976C139.156 515.976 108.613 504.822 82.5013 482.513C56.3892 460.205 36.1109 429.665 21.6665 390.893C7.22218 352.111 0 308.134 0 258.962C0 210.31 7.60171 166.588 22.8052 127.795C38.0087 89.0029 58.8069 58.2081 85.1998 35.411C111.541 12.6035 141.449 1.19966 174.923 1.19966C190.23 1.0154 205.515 2.41648 220.534 5.38051C233.709 8.17815 245.622 11.0902 256.27 14.1166C265.205 17.1157 274.76 17.7709 284.02 16.0198C293.281 14.0972 302.151 10.627 310.257 5.7549C314.292 3.22766 317.079 3.22766 318.618 5.7549C320.157 8.28213 320.157 11.3242 318.618 14.881L224.371 179.963L305.718 233.955C308.755 235.473 310.278 238.261 310.289 242.317V506.085C310.289 509.626 309.259 512.169 307.169 513.698C304.626 515.258 301.85 514.463 298.808 511.42C289.22 503.808 278.852 500.001 267.704 500.001ZM105.697 121.337V313.719L209.1 133.505C218.23 116.761 223.045 101.161 223.544 86.7044C224.044 72.2482 220.367 60.4649 212.516 51.3544C204.654 42.2334 192.617 37.6678 176.405 37.6574C157.687 37.6574 141.215 45.0103 126.989 59.7161C112.763 74.4219 105.665 94.9622 105.697 121.337ZM105.697 390.566C105.697 409.286 109.497 425.38 117.099 438.848C124.701 452.316 134.33 462.581 145.988 469.643C156.747 476.448 169.074 480.374 181.787 481.047C193.444 481.047 201.81 478.509 206.885 473.434C209.276 471.191 211.183 468.482 212.49 465.475C213.796 462.468 214.474 459.225 214.482 455.946V290.896L175.703 265.046L108.036 383.608C107.88 384.242 107.598 384.838 107.207 385.36C106.815 385.883 106.323 386.322 105.759 386.65L105.697 390.566Z" fill="black"/>
<path d="M440.2 465.014C440.2 469.58 437.917 471.863 433.352 471.863H364.937C360.361 471.863 358.079 469.58 358.089 465.014V65.0557C358.089 56.4444 356.695 49.3463 353.909 43.7614C351.407 38.5783 347.921 33.9315 343.645 30.08C340.598 27.5528 339.074 24.7656 339.074 21.7183C339.074 19.1755 341.102 17.4127 345.158 16.3831L432.604 2.70164C437.658 1.68763 440.2 3.73125 440.2 8.78572V465.014Z" fill="black"/>
<path d="M573.334 79.5076C573.932 78.9072 574.643 78.4307 575.426 78.1056C576.209 77.7806 577.049 77.6133 577.896 77.6133C578.744 77.6133 579.583 77.7806 580.366 78.1056C581.149 78.4307 581.86 78.9072 582.459 79.5076C615.403 107.9 640.496 139.709 657.738 174.934C674.98 210.16 683.595 246.56 683.585 284.136C683.585 319.611 675.474 354.711 659.251 389.438C643.028 424.164 617.941 455.723 583.988 484.115C582.668 485.094 581.068 485.623 579.425 485.623C577.782 485.623 576.182 485.094 574.862 484.115C541.908 455.723 516.815 423.784 499.583 388.299C482.352 352.813 473.736 316.569 473.736 279.565C473.736 243.58 481.848 208.35 498.07 173.873C514.293 139.397 539.381 107.942 573.334 79.5076ZM541.403 155.543C530.765 168.231 525.441 186.988 525.43 211.813C525.43 231.574 528.981 253.372 536.084 277.209C543.406 301.54 553.895 324.802 567.281 346.396C580.408 368.072 597.123 387.358 616.713 403.431C622.598 396.185 626.854 387.757 629.192 378.72C632.059 368.188 633.466 357.312 633.373 346.396C633.373 326.127 629.822 304.333 622.719 281.016C615.281 256.966 604.797 233.966 591.522 212.578C578.29 190.773 561.325 171.467 541.403 155.543V155.543Z" fill="black"/>
<path d="M854.112 440.675C852.144 438.334 851.067 435.372 851.07 432.314V420.192L796.319 483.311C793.781 486.857 790.485 487.112 786.429 484.075L721.835 437.649C720.492 436.688 719.384 435.435 718.595 433.984C717.806 432.533 717.357 430.922 717.28 429.272V173.022L695.988 154.77C692.432 151.244 691.933 147.937 694.428 144.895L736.997 84.0542C739.524 80.019 742.566 79.499 746.122 82.4942C754.733 89.0983 762.844 95.562 770.456 101.885C778.068 108.209 785.925 114.927 794.026 122.041C795.273 123.037 796.267 124.314 796.928 125.767C797.59 127.219 797.899 128.808 797.832 130.402V345.639C797.832 364.9 802.511 379.46 811.871 389.319C821.23 399.179 834.286 405.643 851.039 408.711V105.348C850.912 103.552 851.466 101.773 852.59 100.365C853.714 98.9579 855.326 98.0247 857.107 97.7512L922.496 84.0542C927.571 83.0142 930.108 85.0422 930.108 90.1383V394.343L952.914 414.873C956.033 417.993 956.205 421.222 953.678 424.763L904.339 479.473C901.22 483.014 898.256 483.28 895.214 480.238C888.611 474.153 881.768 467.82 874.686 461.237C867.605 454.653 860.746 447.8 854.112 440.675Z" fill="black"/>
<path d="M1089.05 421.768C1091.57 425.325 1091.32 428.622 1088.28 431.659L1032.78 480.316C1029.74 483.353 1026.69 483.353 1023.66 480.316C1010.9 468.146 999.204 454.916 988.686 440.769C986.69 438.438 985.585 435.476 985.566 432.407V155.55C985.566 139.836 979.228 130.964 966.551 128.936C961.997 127.938 959.704 125.395 959.704 121.339V115.255C959.666 113.583 960.069 111.93 960.871 110.463C961.673 108.995 962.847 107.764 964.274 106.893C1002.29 79.0206 1029.41 45.5634 1045.62 6.52123C1046.26 4.85747 1047.42 3.44325 1048.93 2.48591C1050.43 1.52858 1052.2 1.07847 1053.98 1.20154H1059.32C1063.87 1.20154 1066.15 3.47918 1066.15 8.03445V91.6828H1095.79C1100.36 91.6828 1102.64 93.9657 1102.63 98.5313V122.852C1102.63 127.428 1100.35 129.711 1095.79 129.701H1066.15V394.312L1089.05 421.768Z" fill="black"/>
<path d="M1212.67 128.931C1214.63 131.277 1215.71 134.235 1215.71 137.292V465.022C1215.71 469.588 1213.43 471.871 1208.86 471.871H1139.68C1135.12 471.871 1132.84 469.588 1132.84 465.022V173.032L1111.54 154.78C1108.5 151.754 1107.98 148.462 1109.98 144.905L1154.13 84.7975C1156.66 80.2422 1159.7 79.7222 1163.25 83.2375C1172.1 90.0268 1180.61 97.259 1188.73 104.906C1197.09 112.821 1205.07 120.829 1212.67 128.931ZM1128.97 47.5753C1125.93 44.0393 1125.93 40.7424 1128.97 37.6848L1167 1.94465C1171.04 -1.0922 1174.08 -0.572191 1176.11 3.50467C1179.85 10.7981 1185.88 16.6696 1193.27 20.2281C1200.86 24.2396 1209.41 26.0803 1217.97 25.5478C1220.5 25.0486 1222.28 25.6882 1223.29 27.451C1224.31 29.2138 1223.79 31.3823 1221.73 33.9095C1214.9 44.3349 1204.94 52.3214 1193.28 56.7171C1182.07 61.195 1169.88 62.6371 1157.93 60.8979C1147.14 59.5443 1137.02 54.8918 1128.97 47.5753V47.5753Z" fill="black"/>
<path d="M1388.45 211.049C1384.89 215.125 1381.85 214.605 1379.32 209.489C1370.04 192.818 1359.62 176.81 1348.13 161.58V465.02C1348.13 469.586 1345.85 471.869 1341.3 471.869H1274.38C1269.82 471.869 1267.54 469.586 1267.54 465.02V173.031L1246.25 154.779C1242.7 151.253 1242.18 147.946 1244.69 144.904L1287.28 84.0628C1289.8 80.0276 1292.85 79.5076 1296.4 82.5028C1305.01 89.1069 1313.25 95.5706 1321.11 101.894C1328.97 108.217 1336.7 114.936 1344.31 122.049C1345.55 123.047 1346.54 124.324 1347.2 125.777C1347.86 127.229 1348.17 128.817 1348.1 130.411V144.857L1389.15 82.456C1389.55 81.5383 1390.18 80.7406 1390.98 80.1415C1391.79 79.5423 1392.73 79.1626 1393.72 79.0395C1395.73 78.7899 1397.5 79.9287 1399.04 82.456C1406.13 92.0969 1413.1 102.237 1419.94 112.876C1426.79 123.516 1432.99 134.16 1438.57 144.81C1440.6 147.93 1440.35 151.159 1437.82 154.685L1388.45 211.049Z" fill="black"/>
</svg>
