<svg width="45" height="47" viewBox="0 0 45 47" fill="none" xmlns="http://www.w3.org/2000/svg">
<path d="M14.5655 6.91875C14.8802 6.84083 15.191 6.72547 15.5104 6.69203C16.4564 6.59298 17.2307 6.95143 17.7526 7.73263C18.1189 8.2808 18.3959 8.89006 18.6957 9.48071C19.0217 10.123 19.3048 10.7879 19.6484 11.4202C20.1217 12.2909 20.6342 13.1404 21.1503 14.0342C21.2897 13.9413 21.4539 13.8245 21.625 13.7188C23.5967 12.5012 25.651 12.0949 27.7771 13.2589C28.2842 13.5365 28.658 13.5872 29.1942 13.3988C31.0708 12.7391 32.7196 13.2786 34.1984 14.4971C34.8628 15.0446 35.4487 15.6696 35.9479 16.3736C35.9851 16.4261 36.0379 16.4675 36.0835 16.514L36.6741 17.537C36.7022 17.6147 36.7235 17.6958 36.7596 17.7697C37.3308 18.94 37.7511 20.1651 38.0717 21.4245C38.7998 24.2844 38.7063 27.1079 37.6573 29.8797C37.5647 30.1242 37.567 30.2522 37.7905 30.4325C38.3758 30.9045 38.6428 31.551 38.5393 32.2954C38.3511 33.6479 37.6312 34.7061 36.6022 35.5681C36.2745 35.8426 35.9252 36.0914 35.5857 36.3519L34.2217 37.1394C34.1267 37.1749 34.0311 37.2092 33.9366 37.2461C32.991 37.615 32.0584 38.0231 31.0967 38.3435C30.0017 38.7084 28.8742 38.7519 27.762 38.3869C26.6018 38.0062 25.7993 37.2937 25.6475 36.0053C25.6396 35.938 25.5392 35.8481 25.4655 35.8276C25.0326 35.7072 24.5913 35.6163 24.1592 35.4933C22.8531 35.1216 21.5529 34.7291 20.2444 34.3662C19.5401 34.1708 18.8552 34.1605 18.1382 34.4543C16.842 34.9854 15.4869 35.3443 14.0812 35.4475C12.9869 35.5277 11.928 35.4443 11.1094 34.5701L10.8281 34.083C10.5485 32.8207 10.6472 31.5766 11.056 30.3614C11.6003 28.7431 12.7591 27.768 14.377 27.316C15.8895 26.8934 17.4253 26.9592 18.9633 27.1391C19.1666 27.1629 19.3692 27.1913 19.6446 27.2269C19.4821 26.6575 19.3438 26.1224 19.1766 25.5965C18.6813 24.0392 17.8637 22.6384 16.9829 21.2806C16.2717 20.1844 15.4706 19.1467 14.7169 18.0778C14.189 17.3291 13.6366 16.5943 13.1606 15.8134C12.2024 14.2415 11.6841 12.5489 11.9951 10.6854C12.2196 9.34009 12.8024 8.18764 13.9105 7.34206C13.9391 7.32022 13.9577 7.28515 13.9809 7.25625C14.1758 7.14375 14.3706 7.03125 14.5655 6.91875L14.5655 6.91875ZM25.2562 19.7299C25.2421 19.7532 25.228 19.7764 25.2139 19.7997C24.703 19.4933 24.1728 19.2145 23.685 18.8749C22.6251 18.1371 21.8199 17.1558 21.1317 16.0742C19.9783 14.2614 18.9481 12.3802 18.007 10.4492C17.6748 9.76748 17.3591 9.07518 16.9819 8.41868C16.5852 7.72812 15.8042 7.52848 15.0743 7.85335C14.3953 8.15554 13.9029 8.65659 13.5585 9.29818C12.6111 11.0627 12.8059 12.826 13.654 14.5503C14.3896 16.0459 15.4665 17.3225 16.4327 18.6674C17.7251 20.4663 18.9644 22.2938 19.8192 24.351C20.2694 25.4343 20.5963 26.5535 20.7336 27.7225C20.7847 28.1579 20.5351 28.4082 20.1029 28.3552C19.8519 28.3244 19.6033 28.2752 19.3529 28.2389C17.9579 28.0371 16.5611 27.9258 15.1617 28.1938C14.1307 28.3912 13.1985 28.793 12.5672 29.67C11.7372 30.8231 11.6286 32.1506 11.7686 33.5112C11.8052 33.8671 12.0491 34.1477 12.3992 34.2343C12.8214 34.3387 13.2627 34.4305 13.6937 34.4224C15.0264 34.3976 16.3159 34.0795 17.5331 33.5693C18.5878 33.1271 19.6124 33.0947 20.6813 33.4028C21.2487 33.5663 21.8156 33.7314 22.385 33.8875C23.6047 34.2219 24.818 34.585 26.049 34.8714C27.0292 35.0995 28.035 35.1675 29.0238 34.8795C31.2702 34.2253 33.3184 33.1783 35.1479 31.7182C35.6606 31.3091 36.1318 30.8454 36.4018 30.2289C37.2986 28.1809 37.6733 26.0466 37.4441 23.8143C37.2737 22.155 36.8092 20.5756 36.1946 19.0302C35.6158 17.5747 34.774 16.3148 33.5636 15.3139C32.649 14.5575 31.635 14.0445 30.4049 14.1788C29.9993 14.2232 29.6027 14.3505 29.1342 14.455C29.8633 15.3162 30.5251 16.0978 31.2354 16.9367C30.8987 16.7619 30.5947 16.6493 30.3435 16.465C29.5913 15.9131 28.8414 15.355 28.1257 14.7573C27.532 14.2614 26.9043 13.8588 26.1378 13.7129C24.4627 13.3941 23.0214 13.9359 21.7093 14.9368C21.6899 14.9516 21.6829 14.9827 21.6645 15.0166C22.7146 16.6998 23.7956 18.3587 25.2562 19.7299V19.7299ZM26.7044 36.0157C26.7993 36.6693 27.1957 37.0196 27.7073 37.2535C28.5085 37.6197 29.352 37.6863 30.207 37.4988C32.211 37.0591 34.0223 36.1906 35.6784 34.9899C36.4635 34.4206 37.0421 33.6846 37.3714 32.7705C37.4615 32.5204 37.51 32.2419 37.51 31.9764C37.5101 31.6523 37.3648 31.3735 37.0579 31.1909C36.4277 32.0868 35.5997 32.7407 34.723 33.3362C33.6975 34.0329 32.6038 34.6062 31.4672 35.1015C29.9607 35.7578 28.4338 36.2968 26.7044 36.0157V36.0157Z" fill="black"/>
<path d="M25.2562 19.7299C23.7956 18.3587 22.7146 16.6998 21.6644 15.0166C21.6829 14.9827 21.6899 14.9516 21.7093 14.9368C23.0214 13.9359 24.4626 13.3941 26.1378 13.7129C26.9042 13.8588 27.5319 14.2615 28.1257 14.7573C28.8414 15.355 29.5912 15.9131 30.3434 16.465C30.5947 16.6493 30.8986 16.7619 31.2353 16.9368C30.525 16.0978 29.8633 15.3162 29.1341 14.455C29.6026 14.3505 29.9992 14.2232 30.4049 14.1789C31.6349 14.0445 32.649 14.5575 33.5636 15.3139C34.7739 16.3148 35.6157 17.5747 36.1946 19.0303C36.8091 20.5756 37.2736 22.155 37.444 23.8143C37.6732 26.0466 37.2986 28.1809 36.4017 30.2289C36.1317 30.8455 35.6605 31.3091 35.1479 31.7182C33.3184 33.1783 31.2701 34.2253 29.0237 34.8795C28.035 35.1675 27.0291 35.0995 26.0489 34.8714C24.8179 34.585 23.6047 34.2219 22.385 33.8875C21.8156 33.7314 21.2486 33.5663 20.6813 33.4028C19.6124 33.0947 18.5878 33.1271 17.533 33.5693C16.3159 34.0795 15.0263 34.3976 13.6936 34.4224C13.2626 34.4305 12.8214 34.3387 12.3992 34.2343C12.049 34.1477 11.8051 33.8671 11.7685 33.5112C11.6285 32.1506 11.7371 30.8231 12.5671 29.67C13.1984 28.793 14.1306 28.3912 15.1616 28.1938C16.561 27.9258 17.9578 28.0371 19.3528 28.2389C19.6032 28.2752 19.8518 28.3245 20.1028 28.3552C20.535 28.4082 20.7847 28.1579 20.7335 27.7225C20.5962 26.5535 20.2693 25.4344 19.8191 24.351C18.9643 22.2938 17.725 20.4663 16.4326 18.6674C15.4664 17.3225 14.3896 16.0459 13.654 14.5503C12.8059 12.826 12.6111 11.0627 13.5584 9.29819C13.9029 8.6566 14.3953 8.15555 15.0743 7.85336C15.8042 7.52848 16.5852 7.72813 16.9819 8.41869C17.359 9.07519 17.6748 9.76749 18.007 10.4492C18.9481 12.3802 19.9782 14.2614 21.1317 16.0742C21.8199 17.1558 22.6251 18.1371 23.685 18.8749C24.1728 19.2145 24.7029 19.4933 25.2139 19.7997C25.228 19.7764 25.2421 19.7532 25.2562 19.7299V19.7299ZM30.9045 24.7384C30.7345 24.4188 30.4885 24.3156 30.2219 24.4319C29.931 24.5588 29.8329 24.8264 29.9649 25.1578C30.3972 26.2425 30.8515 27.3189 31.26 28.4125C31.57 29.2423 31.8255 30.0925 32.1003 30.9353C32.2232 31.3121 32.4925 31.481 32.8158 31.3691C33.1037 31.2695 33.2134 30.9658 33.0744 30.5616C32.6497 29.3261 32.228 28.0892 31.7772 26.8631C31.5099 26.1359 31.1898 25.428 30.9045 24.7384L30.9045 24.7384ZM34.2631 29.9244C34.4161 30.19 34.6033 30.2796 34.8549 30.2241C35.1076 30.1684 35.2521 29.9818 35.2497 29.6865C35.2371 28.0979 34.9724 26.5436 34.5972 25.0055C34.5309 24.7338 34.2526 24.5692 33.9939 24.623C33.7371 24.6765 33.5679 24.9068 33.5864 25.1844C33.5914 25.2586 33.6048 25.3331 33.6226 25.4054C33.9678 26.8071 34.1894 28.2257 34.2155 29.6719C34.2173 29.7719 34.2526 29.8713 34.2631 29.9244V29.9244ZM29.4169 29.6432C29.4047 29.6492 29.3924 29.6552 29.3802 29.6612C29.1037 29.1824 28.8302 28.7019 28.5499 28.2255C28.3621 27.9063 28.0655 27.8008 27.7971 27.9462C27.5296 28.0911 27.4597 28.407 27.6329 28.7309C28.2817 29.9443 28.9327 31.1565 29.5842 32.3684C29.7508 32.6781 30.0067 32.788 30.2725 32.6706C30.5668 32.5406 30.6738 32.277 30.5211 31.9472C30.1632 31.1745 29.7862 30.4106 29.4169 29.6432L29.4169 29.6432Z" fill="white"/>
<path d="M26.7044 36.0157C28.4338 36.2967 29.9607 35.7578 31.4672 35.1014C32.6038 34.6062 33.6975 34.0329 34.723 33.3362C35.5997 32.7407 36.4277 32.0868 37.0579 31.1909C37.3648 31.3735 37.5101 31.6523 37.51 31.9764C37.5099 32.2419 37.4615 32.5204 37.3714 32.7704C37.0421 33.6846 36.4635 34.4206 35.6783 34.9899C34.0223 36.1906 32.211 37.0591 30.2069 37.4987C29.352 37.6863 28.5085 37.6197 27.7073 37.2534C27.1957 37.0196 26.7993 36.6693 26.7044 36.0157V36.0157Z" fill="white"/>
<path d="M30.9046 24.7384C31.1898 25.428 31.5099 26.1358 31.7773 26.8631C32.2281 28.0892 32.6497 29.3261 33.0745 30.5616C33.2134 30.9658 33.1038 31.2694 32.8158 31.3691C32.4925 31.4809 32.2233 31.3121 32.1004 30.9353C31.8256 30.0925 31.57 29.2423 31.26 28.4125C30.8515 27.3189 30.3972 26.2425 29.965 25.1577C29.833 24.8264 29.931 24.5588 30.222 24.4318C30.4885 24.3155 30.7345 24.4187 30.9046 24.7384V24.7384Z" fill="black"/>
<path d="M34.2632 29.9244C34.2527 29.8713 34.2174 29.7719 34.2156 29.6718C34.1895 28.2256 33.9679 26.8071 33.6227 25.4054C33.6048 25.3331 33.5914 25.2585 33.5865 25.1843C33.568 24.9067 33.7372 24.6764 33.994 24.623C34.2527 24.5691 34.531 24.7337 34.5973 25.0055C34.9725 26.5436 35.2372 28.0979 35.2498 29.6865C35.2522 29.9817 35.1077 30.1683 34.855 30.2241C34.6034 30.2796 34.4162 30.19 34.2632 29.9244V29.9244Z" fill="black"/>
<path d="M29.417 29.6431C29.7862 30.4106 30.1633 31.1744 30.5211 31.9472C30.6739 32.277 30.5669 32.5406 30.2725 32.6706C30.0068 32.788 29.7508 32.6781 29.5843 32.3683C28.9327 31.1565 28.2817 29.9443 27.6329 28.7309C27.4598 28.407 27.5296 28.091 27.7971 27.9462C28.0655 27.8008 28.3621 27.9063 28.5499 28.2254C28.8303 28.7019 29.1038 29.1824 29.3802 29.6612C29.3925 29.6552 29.4047 29.6491 29.417 29.6431V29.6431Z" fill="black"/>
</svg>
