<?xml version="1.0" encoding="UTF-8"?><svg id="Layer_2" xmlns="http://www.w3.org/2000/svg" width="498.6253" height="362.0009" viewBox="0 0 498.6253 362.0009"><defs><style>.cls-1{fill:#f0f8ff;}.cls-2{fill:none;stroke:#000;stroke-linecap:round;stroke-linejoin:round;stroke-width:2px;}</style></defs><g id="Layer_1-2"><g><path class="cls-1" d="m498.27854,135.0966c-.00049-.00781-.00049-.01465-.00098-.02246l-.68701-20.89014c-.00098-.10107-.01758-.20361-.05127-.30371l-6.01709-19.08984c-.01514-.04785-.03369-.09521-.05615-.14062l-9.74902-19.82861s-.00049-.00049-.00049-.00098c-.00098-.00146-.00195-.00342-.00293-.00537v-.00049c-.01807-.03516-.0376-.06982-.05957-.10254l-10.69092-16.43848c-.04736-.07666-.10645-.14795-.17578-.21143l-15.23779-14.16113-16.08203-12.64746c-.01221-.00977-.0249-.01904-.0376-.02832-.00146-.00146-.00293-.00244-.00488-.00391-.00195-.00195-.00146-.00244-.00586-.00391-.00195-.00146-.00391-.00293-.00586-.00391v-.00049c-.01025-.00684-.02051-.01367-.03125-.02051l-.00049-.00049c-.00195-.00098-.00391-.00244-.00586-.00342-.00391-.00391-.00488-.00342-.00635-.00439-.00195-.00098-.00342-.00244-.00635-.00342-.00098-.00146-.00293-.00195-.00439-.00293l-18.02588-10.85596c-.05908-.0376-.12305-.06982-.19092-.09473l-21.34814-8.35645c-.05225-.02197-.10645-.03955-.16309-.05225l-24.27979-5.82471-15.17236-2.41455c-.02393-.00439-.04785-.0083-.07227-.01123l-24.20752-2.94043c-.07031-.01562-.14209-.02393-.21436-.02393L309.70871.00138c-.0332-.00244-.06592-.00146-.09766.00146l-27.15918,1.70654c-.0542-.00049-.11328.00342-.16943.01172l-27.96094,3.94727c-.02832.00391-.05664.0083-.08496.01465l-28.20508,6.08691c-.05322.00781-.10498.01953-.15527.03467l-28.02295,8.11133c-.0332.00732-.06641.01611-.09912.02686-.0127.00391-.0249.0083-.03711.0127l-27.41162,10.00684c-.05127.01465-.10205.03369-.15088.05664l-26.39258,11.75928-.0293.01318c-.00146.00098-.00293.00146-.00439.00244,0,0-.00049,0-.00098.00049-.01416.00684-.02832.01416-.04199.02148l-24.83105,13.29199c-.05029.02197-.09912.04834-.14502.07812l-22.96924,14.68945c-.02783.01758-.05469.03662-.08008.05664l-20.52832,15.76709c-.05908.03662-.11377.07959-.16357.12695l-17.81787,16.68945c-.01953.01758-.03906.03564-.05762.05469l-10.88086,10.97559-16.09424,18.9668c-.03467.04102-.06543.08398-.09277.12891l-12.28516,19.3291c-.03906.05957-.07129.12207-.09668.18652l-8.13135,19.37891c-.00977.02344-.01904.04688-.02686.07129-.00098.00195-.00146.00391-.00244.00586,0,.00195-.00098.00488-.00195.00684-.00049.00195-.00098.00293-.00146.00488l-.00098.00195c-.00342.01074-.00635.02148-.00928.03223l-5.5293,19.76855L.02024,211.74504c-.01904.09375-.02441.1875-.01709.27832l1.06689,19.56641c.00244.04297.00732.08496.01514.12695l3.8208,21.72852c.00879.0498.021.09863.0376.14746l6.39551,18.94531c.03223.10059.0791.19336.13867.27637l11.74121,17.24902c.00537.00879.01123.01758.01709.02539l12.6665,17.93457c.04395.0625.09521.11914.15186.16992l16.82568,14.97754c.05957.05273.12354.09766.19043.13379l21.79932,12.38477c.00586.00391.01123.00684.01709.00977h.00098c.00146.00195.00391.00195.00586.00391l17.31396,9.21973c.04346.02246.08838.04297.13428.05957l24.94434,8.8916c.05957.02246.12012.03906.18066.0498l28.71631,5.72852c.05371.01172.1084.01953.1626.02246l31.87842,2.32227c.0293.00293.05859.00391.08789.00391.01416,0,.02832,0,.04199-.00098l34.17676-1.2373c.06836.00391.13574.00195.20117-.00781l35.65332-4.82324c.06396-.00293.12744-.01172.18994-.02637l36.16406-8.32715c.0498-.00781.1001-.01953.14941-.03516l1.80566-.54785,32.1709-10.48828,1.74365-.6084c.03906-.01172.07666-.02637.11328-.04297l34.09863-14.58008c.06445-.02148.12598-.04785.18408-.08105l31.64502-17.12012c.06104-.02637.11963-.05762.1748-.0957l28.43408-19.20898c.03662-.02441.07227-.05176.10596-.08105l24.41309-20.68457c.02393-.01953.04688-.04004.06934-.0625.00098,0,.00146,0,.00391-.00391.00977-.00977.02002-.02051.02979-.03125l19.86182-21.58789c.03076-.03223.05957-.06738.08691-.10449.00098-.00195.00195-.00391.00293-.00391.00488-.00781.01025-.01465.01514-.02246l14.93408-21.9209c.02734-.04102.05176-.08301.07324-.12695l8.56689-17.66992c.00439-.00977.00879-.01953.01318-.02832l10.32373-22.87891c.03564-.07422.06201-.1543.07861-.2373l4.76514-22.02441c.01611-.0752.02344-.15137.02246-.22754l-.34668-21.97656Zm-178.50049,30.13312l-.0813.0517-14.66284,9.32104c-.00732.00391-.01416.00781-.02148.01172l-18.89502,9.78516c-.01758.00684-.03516.01465-.05225.02344l-20.19971,8.42676c-.00537.00195-.01074.00391-.0166.00586l-21.03174,6.86621c-.00635.00098-.01318.00293-.01953.00488l-21.30273,5.11914c-.00586.00098-.01221.00195-.01807.00293l-21.02881,3.25098c-.00781,0-.01514.00098-.02246.00098l-20.22607,1.31641h-.02344l-18.9834-.63086-14.38098-2.11005-2.39832-.35187-.39453-.16016.09692-.12885.41919-.55798.49316-.65607,2.18848-2.91199.20715-.21338,2.25549-2.32294,8.52954-8.78497,12.93994-10.74414c.00635-.00391.01221-.00879.01807-.0127l14.64844-9.97363c.00293-.00098.00537-.00293.0083-.00391l16.09131-9.02734,7.14136-3.28302.65955-.30316,9.31238-4.28101c.00879-.00293.01758-.00586.02637-.00977l17.90723-6.6123.01025-.00293,18.37012-5.23535c.00879-.00098.01709-.00293.02588-.00488l10.08484-2.04791,8.43469-1.71283,18.24414-2.2002c.00537-.00098.01025-.00098.01514-.00098l17.7666-.59668,16.84668,1.03906,9.06067,1.51709,6.11511,1.02393.91821.27863,2.95166.89575.87598.26581.72485.21997-.16211.22852c-.02197.03125-.04199.06348-.06055.09668l-1.3562,1.33752-10.7478,10.59998-14.94775,11.69531-2.354,1.4964Z"/><path class="cls-2" d="m320.31015,334.94445l-35.72501,11.64499m53.155-193.799l15.522-4.974,14.60202-14.41299,11.28799-14.632,7.78101-14.492,4.18399-14.0193.591-13.2401-2.91-12.19-6.24701-10.9091-9.354-9.4388-12.185-7.8186-14.69501-6.0885-16.862-4.2866-18.66498-2.4466-20.08701-.5983-21.12701,1.2268-21.77998,3.007-22.04701,4.7153-21.931,6.3327-21.439,7.836-20.575,9.2086-19.347,10.4279-17.769,11.4772-15.94-7.2588-12.4698.50121-14.4193,11.0711-6.1998,4.7602-11.582,10.8475-6.2711,5.8742-10.8327,10.922-6.0371,7.114-10.0576,11.854-12.3051,19.362-8.1425,19.40599-3.95038,14.11501-1.55974,5.573-3.92087,20.32901,1.0681,19.58899,6.26272,18.39301,11.55437,16.72699,16.8165,14.595,21.898,12.008,26.6338,9.013,30.8495,5.668,34.37099,2.05801,37.043-1.707,38.729-5.504,39.34001-9.20099,38.83298-12.66202,37.21301-15.76401,34.54999-18.39499,30.95502-20.474,26.582-21.94701,21.60699-22.789M254.44716,6.66036l-28.27701,6.10009-1.785.5161-26.321,7.6168-27.483,10.03-26.416,11.7697m-98.49109,103.15741l-2.5732,15.21199,1.3136,14.51201,5.3077,13.47699,9.325,12.10701,13.2671,10.409,17.0279,8.408,20.489,6.14,23.538,3.655,26.05899,1.011,27.95401-1.71201,29.14099-4.43401,29.56401-7.067,29.19901-9.52699,28.05099-11.731,26.16199-13.612,23.60202-15.11299m-215.52402,35.56099l-2.942-6.347-4.76199-4.856-11.318-11.53899-2.359-1.02501-20.1819-8.771-25.9294-1.717-25.6704,6.683-21.7579,14.155m392.0506,94.20599l4.685-13.737-2.59201-20.138-9.68298-23.771-15.452-23.942-18.94501-20.562-19.61899-14.2m86.36298-113.94151l-25.95999,1.419-24.70599,9.7671-19.95102,16.7034-12.439,21.22501-3.31998,22.737m86.05399,137.73699l19.87701-21.605,7.63998-16.38,15.86301-23.215,10.33398-22.901,4.76901-22.043-.34698-21.976-10.12903-20.936-18.66498-16.9216-24.62701-10.4394-27.08099-2.4356-25.659,5.88029-17.84201,11.47131-2.79001,1.794-11.13599,16.202-1.702,2.47601m-228.631,74.62599l-21.36301-7.50699-24.4555,1.457-24.1505,10.379-20.3935,17.92299-13.6964,22.93001m152.2689-89.849l-7.026-20.257-12.37-21.211-15.95-19.0699-17.192-14.1495m334.33101,164.1524l14.93597-21.925,8.56702-17.67-.771-21.369-10.21899-22.12-18.349-19.69-23.87402-14.378-25.923-6.997-24.23398,1.29301-19.177,9.23299m20.67999-105.0919l-19.64301,13.751-15.556,20.249-9.23599,23.8568-1.64001,24.0471,8.23203,5.83,6.22598,6.935,4.05002,7.914,1.38699,6.962-.16202.354m-4.38199,8.00499l.129-.235.94-1.32599.77899-.718,1.50302-1.93201.90598-1.164.569-.73099,5.21802-6.70601,6.776-12.422,3.73398-12.057.67801-11.4286-2.31601-10.5634-5.185-9.494-7.87299-8.253-10.33301-6.8739-12.53198-5.3907-14.43701-3.8347-16.02899-2.2365-17.29501-.6259-18.22299.973-18.81,2.5353-19.054,4.0378-18.95801,5.46-18.526,6.7833-17.75999,7.9876-16.675,9.0551-15.27699,9.9677-13.584,10.7089-11.61201,11.262-9.384,11.61-6.931,11.741-4.283,11.642-1.4858,11.30101,1.4139,10.71899,4.3569,9.89099,7.282,8.82301,10.115,7.53,16.451,5.35599,3.444,1.121.29401.09601m317.349-21.87201l-17.70801-21.13599-22.73499-16.46201-24.42102-9.41701-22.57797-1.13499-12.845,5.179-2.62201,1.05701-2.14999.86699m-204.47601,66.73401l-18.39899,4.65199-17.541,14.22301-14.1428,21.991-8.63091,26.67799-1.8239,27.48599,5.2101,24.28702,11.3825,17.66,15.813,8.72098m158.08799-216.59399l-18.58099,3.77301-18.45799,5.25699-18.00301,6.645-17.22499,7.91501m-54.61,38.68199l1.19699-18.711-7.306-20.36299-14.934-19.15601-20.507-15.181-23.1456-9.005-22.45131-1.573-18.5928,5.98-12.2318,12.553M309.67316,1.00045l-27.23599,1.70883-27.99001,3.95107-4.41901,6.2987-2.23199,14.5183.334,20.8557,2.89499,24.2392,5.04199,24.0676,6.43503,20.3766,6.879,13.82101,6.34598,5.50699,18.37201-2.21199,17.828-.599m158.185-74.7341l-17.05099-13.5164-22.39902-5.719-24.66498,2.9967-23.44601,11.3603-18.88901,18.1185-11.68597,22.2746-2.93802,23.2674,3.45599,11.98499,1.24002,4.30101m-214.68401,70.07199l-.065-.179-1.47-4.02499-4.278-11.713-1.98-2.09801-14.104-14.948-22.5528-11.08699-25.9069-3.48401-25.5926,4.657-21.6436,12.119-14.67959,17.814-5.77751,20.95001M380.65515,22.91255l14.27802,8.8784,11.064,10.7697,7.50699,12.5023,3.66501,14.0261-.39301,15.2908-4.58499,16.2486-8.80502,16.85-12.944,17.06-16.87299,16.84801-20.46799,16.19901-17.461-5.93701-20.246,12.888-22.38702,11.60001-23.966,10.00099-24.93098,8.13501-25.24699,6.058-24.91,3.83299-23.937,1.53201-22.37001-.77701-20.27399-3.026-17.726-5.155-14.815-7.11-22.5169,11.94-18.8679,19.547-12.4682,24.40001-4.2763,25.73499,4.4466,23.383,22.247,12.491,11.9682,17.69702,17.3139,9.21899,11.7286,4.18201,13.233,4.71698,28.76099,5.737,31.91301,2.32501,34.28-1.23599,35.75-4.832,36.24199-8.34302,1.79901-.54599,32.15201-10.48099,1.77399-.61801,34.20599-14.62201,31.74701-17.17099,28.444-19.216,24.435-20.703,6.34201-15.054,21.17499-22.931-1.22198-20.991-10.13101-22.703,16.22601-23.00999,10.62399-22.638,4.99298-21.729-.53299-20.3476-5.797-18.5664-17.82501-14.5229-9.93298-15.4566-14.21899-13.2491-20.94901-4.5596-16.33301-9.9323-20.905,5.3707-17.116-6.8739-19.548-4.7988-21.55701-2.69078-23.13498-.58546-24.27902,1.48969-24.99199,3.50575-25.274,5.4394-25.132,7.2685-24.57399,8.9716-23.604,10.53-22.231,11.9213-20.465,13.1263-18.3141,14.12251-15.7979,14.88779-12.9329,15.4009-9.7491,15.64-6.2801,15.58301-21.0471,10.05199-3.1696,17.28001,1.1992,16.547-14.78054,19.588,6.03324,17.151,11.048,15.543-5.0718,24.644,4.1682,22.858,17.0948,15.11899,12.3963,17.79102,21.8189,12.397,26.46249,9.397,30.58601,6.04099,34.02299,2.41101,36.61501-1.38101,38.237-5.216,38.80101-8.95798,38.263-12.474,36.63599-15.634,33.98499-18.33002,30.42001-20.478,26.09201-22.02-1.83301-20.57599-9.952-23.26001-16.73901-22.56799-21.08298-18.545-22.30801-11.843-20.30701-3.57001-17.62198,13.832-12.931,2.903-11.71002,7.44101-5.508,3.49899-19,9.836-20.31699,8.47301-21.12601,6.894-21.40201,5.13899-21.136,3.26401-20.34599,1.319-19.061-.633-16.89099-2.47801-.34201-.09-1.289-.677-1.17699-.26199-3.79201-.8-1.099-.314-7.95801-2.27901-20.90899,3.854-20.304,13.239-16.77731,20.92101-10.7742,25.66599-3.1908,26.694,4.7955,23.866,27.0483,9.43402,31.3215,6.01498,34.89,2.315,37.592-1.54898,39.29401-5.45602,39.90099-9.263,39.36603-12.83499,37.70398-16.039,34.979-18.763,31.30899-20.922,26.85101-22.45799,21.78601-23.34601,16.314-23.593,10.62299-23.233,4.90402-22.31799-.68802-20.916-6.022-19.1054-4.13901-8.4182-5.60999-11.4105-10.707-16.463-15.181-14.1128-16.08899-12.6527-18.047-10.8687-13.21002-5.1708-8.177-3.2011-15.133-3.63229-9.082-2.1799-15.20801-2.4209-24.30399-2.95688-26.008-.60282-10.37399,6.96322-8.59601,15.27987-5.54001,21.5812-1.633,24.8189,2.52301,24.4339,6.27798,20.5069,9.06799,13.73,10.52802,5.21901,16.94598,1.045,15.28802,2.56.448.133,5.72598,1.741.46201.22101M22.65655,189.72945l5.7145,15.429,10.2826,13.92299,14.7927,12.033,19.1185,9.783,23.1236,7.209,26.6667,4.368,29.615,1.332,31.839-1.811,33.241-4.963,33.75-8.019,33.33101-10.873,31.995-13.429,29.78998-15.601,26.80402-17.325,23.15701-18.556,18.98599-19.274,14.44598-19.48,9.68802-19.197,4.85999-18.463.09702-17.3261-4.49002-15.8454m-88.05298,84.4685l-.96701-1.12-9.77802-11.32101-6.086-20.855-10.03098-4.63-11.60202-3.35899-12.92099-2.04301-13.97299-.70689-14.74802.62659-15.23801,1.9357-15.44299,3.19981-15.362,4.3988-14.99599,5.514-14.35301,6.53-13.44099,7.428-12.272,8.195-10.858,8.812-9.22099,9.27101-7.38,9.554-5.36499,9.65199,7.38599,20.422-1.336,16.38m19.677,3.787l-15.457,5.13499-14.27699,14.85201-11.014,22.70399-6.07301,27.39001-.199,28.07397,5.682,24.63303,10.647,17.68597,13.98799,8.418M496.59015,114.19645l-6.43298-13.136-3.54102-7.2316-18.37299-15.6636-24.289-8.6759-26.785-.4003-25.461,7.931-20.54501,15.0768-11.98499,18.6976-.84702,1.321-1.86798,11.811-.65201,4.116m-221.867,72.422l-2.95599-2.942-8.47001-8.431-22.147-8.59201-25.451-.05499-25.198,8.60699-21.3511,16.10701-14.4618,21.31-5.57828,23.459,3.96008,22.30499M399.40814,12.79325l-17.30499-2.91188-22.11801-5.32123-15.99399,6.67981-14.53601,15.0485-10.96799,21.3987-5.77899,24.7051.23898,24.4352,6.15701,20.671,11.10098,14.073,13.95602,5.567.448.133m-139.27501,14.474l-2.599-15.21599-6.82201-20.24701-10.12399-22.4048-11.957-21.27589-12.02701-17.0318-10.36099-10.4014-7.27901-2.4755-24.911,13.3313-17.331,11.0833-5.6448,3.6098m63.25081,119.134l6.94099-11.711-.004-17.14101-7.12401-20.282-13.35199-20.55099-17.694-17.833-19.45801-12.5232-18.4041-5.4716-14.7748,2.2101m106.5049,123.8677l-12.14799,5.27901-10.58801,15.086-7.45799,23.02499-3.16299,27.76099,1.64699,28.42902,6.201,24.89099,9.78,17.78201,11.87801,8.33099M124.68815,77.47505l-15.85001,12.3352-13.6112,12.9852-11.0724,13.405-8.2626,13.58101-5.2172,13.493-1.9813,13.131,1.3914,12.48601,4.8354,11.55299,8.2774,10.33501,11.6334,8.84799,22.9371-2.77499,12.78699,6.03099M335.68115,1.60327l-13.24701,6.94587-11.64398,15.29271-8.332,21.6088-3.77301,24.8517,1.341,24.48209,6.21201,20.58601,10.11398,13.846,12.521,5.362m-126.36299,74.519l-8.55699,5.06599-6.571,14.90601-3.573,22.92599.02499,27.76599,3.66299,28.52802,6.75,25.04901,8.80301,17.94998,9.543,8.47601m-7.259-208.01901l-14.289,7.998-13.03999,8.851-5.418,10.42101m51.05899,26.81799l-4.78299,4.49701-2.34001,14.30499.52701,22.397,3.39099,27.39201,5.785,28.36099,7.315,25.09698,7.746,18.19,7.05499,8.86002m-3.29399-154.23801l-.938,3.578,1.97701,13.29599,4.713,21.44501,6.82298,26.64301,7.94302,27.92801,7.87598,25.03497,6.64603,18.49503,4.49698,9.47498m-2.14798-343.88016l-7.41702,6.74408-5.444,15.01699-2.63599,21.3274.60199,24.6126,3.763,24.2938,6.353,20.4363,7.98401,13.72301,8.457,5.269m-106.77299,34.853l3.71899-9.242-1.649-15.787-6.924-20.24599-11.28799-21.832-14.02701-20.2216-14.7-15.659-13.244-8.9079-9.959-1.0656m267.009,247.1271l2.70898-12.47501-3.48099-19.694-9.32901-24.21899-13.87799-25.20801-16.36801-22.44499-16.41699-16.412-14.10498-8.162-9.90302.955m-170.856,21.308l-1.39799-8.77699.936-9.26801-15.886-17.73399-22.2009-12.43201-25.4114-5.314-25.0008,2.576M226.17015,12.76045l-1.416,5.6381.995,13.7941,3.32701,20.1782,5.211,23.709,6.33699,23.7598,6.52501,20.3258,5.771,14.025,4.226,5.927m-36.461,11.90199l-.084-7.278-3.614-14.729-6.72099-20.25999-8.897-22.9222-9.77701-22.2161-9.213-18.2528-7.33099-11.7228-4.46701-3.7152m183.935,289.39909l.47101-11.31598-4.47501-19.26102-8.89999-24.58701-12.06201-26.32199-13.42398-24.125-12.789-18.401-10.33002-10.174-6.51599-.81m-109.265-33.164l-10.75999,8.83699-9.12601,9.30501-7.293,9.601-5.285,9.711-3.13599,9.625-.51001,5.66901m-116.1589,37.101l16.0209,13.50301,20.8125,11.04898,25.2668,8.22101,29.2247,5.08002,32.52501,1.70297,35.02699-1.806,36.60699-5.33698,37.18199-8.76801,36.71503-11.974,35.21198-14.84601,32.73401-17.28101,29.38101-19.20799,25.29498-20.573,20.638-21.35699,15.58502-21.56401,10.31198-21.22099,4.98901-20.3776-.241-19.0896-5.24902-17.4257-23.53-7.0956-8.802-14.0801-12.76898-12.0897-22.95999,4.3168-21.73602,12.6912-17.40698,19.3042-10.60699,23.1557-2.371,23.70441,6.069,20.94999,3.75598,4.276m68.15802-114.70729l-19.23502-3.6233-19.457-7.66048-18.564,6.15728-17.22202,14.5364-13.39297,20.9468-7.61301,24.3742-.76199,24.2904,6.11398,20.761,10.00299,4.724,8.21503,5.925,3.76797,4.255m-211.55598,69.048l.533-5.658-7.453-20.487,3.203-9.56-15.49601-18.44099-21.51099-13.80701-24.4772-7.16499-23.9378.48599-20.0144,7.993-13.366,14.26201M198.06415,20.89335l1.558,4.7737,4.196,12.8583,6.3,19.3055,7.51601,23.031,7.62799,23.3766,6.621,20.286,4.677,14.33,2.12801,6.51999m81.62199,189.57001l-1.95898-10.30399-5.543-18.85602-8.40903-24.862-10.06097-27.23999-10.207-25.54201-8.845-20.099-6.24503-11.90401-2.86697-2.33699m84.16098-54.78801l-2.48499-1.18599-5.17502-2.47101-12.47-3.784-13.853-2.355-14.953-.90201-15.75699.54901-16.26099,1.974-16.46101,3.353-16.36,4.664-15.959,5.88699-15.267,7.004-1.87399,8.18901-16.134,9.05099-14.739,10.03-13.058,10.836-10.82701,11.082-.282.37-3.59599,4.785-.24301.45m348.27499-27.407l-.48199-21.701-10.21799-21.52499-18.66101-18.27299-24.49799-12.354-26.806-4.65-25.258,3.651-20.18201,11.303-9.55301,13.23199-.582.80701-2.121,2.937m-31.78598,31.993l6.504-5.08899,8.52698-6.67201,12.19101-11.974.31601-.31.75299-1.25099.41101-1.14301,1.22598-2.24001.01199-.021,1.08502-1.98399.57898-1.056.142-.45401,1.35602-4.31499,1.836-5.839.68399-10.08801-1.923-9.35699-4.43198-8.4444-6.793-7.37189-8.96301-6.17281-10.909-4.8733-12.603-3.5038-14.02301-2.0899-15.155-.6587-15.98801.76669-16.517,2.1619-16.73799,3.5076-16.653,4.7821-16.265,5.9683-15.58,7.04739-14.605,8.0008-13.354,8.816-11.84,9.472-10.082,9.959-8.10101,10.261-5.927,10.367-3.59299,10.267-1.134,9.95599,1.402,9.42801,3.963,8.687,6.49801,7.73799,4.92799,3.63501,1.946,1.43599,1.687,1.246.38.27901,1.093.51399,2.043.96001.02299.011,2.28801,1.366,1.00899.575,1.457.364.34201.09m2.20799-6.002l.282-.37,7.978-12.724.66-17.905-7.21899-20.31599-14.213-19.86301-19.22401-16.53-21.4572-10.8-20.5908-3.5689-16.83,4.0439-14.6957,17.33701-11.1707,17.65299-7.3129,17.642-14.1957,16.026-3.65349,19.067,1.09831,18.32201-5.80772,22.217,3.82254,21.73801,6.40026,18.95999,11.7626,17.28101,12.6656,17.93301,16.8254,14.97699m289.13049-187.06801l-12.01199-14.408-11.55899-3.449-12.866-2.128-13.90701-.786-14.673.556-15.15598,1.876-15.35301,3.149-15.26601,4.359-14.896,5.48799-14.252,6.51701-13.339,7.42699-12.17,8.20601.77901,16.43199-11.535,9.54601-9.79001,10.069-7.82999,10.407-2.71901,5.047-1.30699,2.425"/></g></g></svg>