<?xml version="1.0" standalone="no"?>
<!DOCTYPE svg PUBLIC "-//W3C//DTD SVG 20010904//EN"
 "http://www.w3.org/TR/2001/REC-SVG-20010904/DTD/svg10.dtd">
<svg version="1.0" xmlns="http://www.w3.org/2000/svg"
 width="2560.000000pt" height="688.000000pt" viewBox="0 0 2560.000000 688.000000"
 preserveAspectRatio="xMidYMid meet">

<g transform="translate(0.000000,688.000000) scale(0.100000,-0.100000)"
fill="#000000" stroke="none">
<path d="M8470 3164 l0 -1444 335 0 335 0 0 96 0 96 48 -39 c166 -138 328
-200 583 -223 322 -30 643 44 883 204 330 220 508 613 466 1031 -26 266 -119
479 -284 652 -214 226 -502 345 -872 360 -340 14 -579 -57 -781 -233 l-43 -37
0 405 0 405 -47 11 c-27 6 -177 45 -335 86 l-288 74 0 -1444z m1483 200 c221
-49 375 -196 434 -414 13 -47 18 -101 17 -195 0 -115 -4 -139 -28 -210 -34
-100 -102 -202 -169 -256 -192 -155 -514 -184 -752 -69 -133 64 -232 177 -282
321 -34 101 -43 273 -19 383 50 222 201 377 426 435 96 25 272 28 373 5z"/>
<path d="M19793 4518 l-313 -81 0 -404 c0 -221 -4 -403 -8 -403 -5 0 -21 14
-38 31 -106 112 -314 202 -528 229 -128 17 -369 7 -497 -19 -547 -111 -889
-498 -916 -1037 -14 -274 63 -539 217 -743 237 -314 664 -481 1129 -441 248
21 443 93 578 215 28 25 54 45 57 45 3 0 6 -43 6 -95 l0 -95 330 0 330 0 0
1440 c0 1365 -1 1440 -17 1439 -10 0 -159 -37 -330 -81z m-704 -1173 c175 -59
299 -186 357 -361 25 -78 29 -104 29 -209 0 -137 -13 -199 -61 -302 -63 -134
-177 -232 -334 -287 -79 -28 -95 -30 -230 -31 -109 0 -161 4 -208 18 -201 55
-333 178 -404 377 -28 77 -36 278 -15 377 46 215 200 374 419 433 60 17 98 19
218 17 128 -3 155 -7 229 -32z"/>
<path d="M11300 3080 l0 -1360 330 0 330 0 -2 1358 -3 1357 -327 3 -328 2 0
-1360z"/>
<path d="M25172 4331 c-105 -36 -166 -123 -166 -236 0 -83 22 -133 83 -188 38
-34 119 -67 166 -67 81 0 187 65 225 140 69 136 -4 311 -149 354 -69 20 -93
20 -159 -3z m200 -66 c62 -44 90 -105 86 -182 -5 -77 -41 -135 -108 -171 -64
-34 -152 -28 -212 13 -62 44 -90 105 -86 182 5 77 41 135 108 171 64 34 152
28 212 -13z"/>
<path d="M25150 4100 l0 -140 35 0 35 0 0 56 c0 69 12 68 59 -4 30 -46 38 -52
67 -52 19 0 34 3 34 6 0 13 -53 95 -67 103 -13 7 -11 11 13 22 18 9 32 26 37
46 19 66 -37 103 -155 103 l-58 0 0 -140z m124 84 c9 -3 16 -16 16 -29 0 -23
-17 -35 -51 -35 -15 0 -19 7 -19 35 0 36 15 44 54 29z"/>
<path d="M5230 3983 c-274 -26 -499 -122 -680 -290 -283 -262 -376 -667 -231
-1014 44 -107 118 -215 208 -304 276 -274 689 -378 1090 -274 97 25 265 104
350 165 489 349 539 1020 106 1425 -176 164 -399 262 -654 289 -99 10 -118 10
-189 3z"/>
<path d="M21448 3949 c-662 -54 -1074 -430 -1129 -1031 -38 -414 115 -792 408
-1012 255 -191 590 -276 1005 -255 297 16 564 106 769 261 85 64 194 177 182
189 -14 13 -531 309 -540 309 -4 0 -21 -23 -36 -50 -61 -108 -193 -203 -328
-235 -136 -32 -332 -14 -440 40 -154 78 -259 235 -270 405 l-4 55 924 3 924 2
-7 144 c-18 384 -113 632 -321 841 -149 149 -306 235 -535 291 -174 42 -407
59 -602 43z m395 -473 c171 -58 270 -160 312 -323 8 -31 15 -63 15 -70 0 -11
-103 -13 -542 -11 l-543 3 3 30 c18 173 156 326 342 379 81 22 104 25 225 21
87 -2 126 -8 188 -29z"/>
<path d="M13170 3940 c-357 -49 -647 -202 -820 -432 -160 -212 -228 -450 -217
-758 6 -171 23 -262 71 -391 124 -332 392 -561 771 -659 161 -41 259 -53 450
-53 282 1 492 45 700 148 127 63 211 124 310 225 66 67 69 72 51 85 -31 23
-523 305 -533 305 -4 0 -17 -19 -28 -43 -32 -69 -133 -163 -217 -201 -94 -44
-170 -59 -288 -58 -166 1 -297 50 -395 147 -83 83 -145 227 -145 334 l0 41
920 0 920 0 0 95 c0 578 -264 986 -742 1146 -171 58 -260 70 -513 74 -126 2
-259 0 -295 -5z m484 -464 c129 -44 211 -107 269 -208 28 -47 57 -138 57 -175
l0 -23 -540 0 -540 0 0 24 c0 42 36 144 70 196 68 106 193 183 345 210 90 16
253 5 339 -24z"/>
<path d="M24255 3934 c-150 -34 -293 -120 -432 -263 l-83 -84 0 61 0 62 -330
0 -330 0 0 -1000 0 -1000 330 0 330 0 0 503 c0 297 4 539 11 592 35 292 192
485 449 552 47 12 108 16 223 17 l157 0 0 277 c0 153 -4 280 -8 283 -5 3 -62
8 -128 11 -88 3 -137 1 -189 -11z"/>
<path d="M16236 3919 c-212 -31 -414 -129 -598 -291 l-78 -69 0 75 0 76 -335
0 -335 0 0 -995 0 -995 335 0 335 0 0 588 c0 645 1 653 62 781 42 90 150 197
239 239 100 48 187 65 324 66 241 1 364 -73 424 -257 37 -111 41 -187 41 -809
l0 -608 335 0 335 0 0 683 c0 404 -4 728 -11 796 -20 221 -81 366 -204 486
-134 131 -303 205 -535 235 -90 11 -253 11 -334 -1z"/>
</g>
</svg>
