<svg width="24" height="24" viewBox="0 0 24 24" fill="none" xmlns="http://www.w3.org/2000/svg">
<path d="M20 12.2054C19.9771 11.9596 19.8629 11.7313 19.68 11.5654L5.28001 1.16545C5.15436 1.07359 5.0061 1.01762 4.8511 1.00353C4.69609 0.989434 4.54016 1.01775 4.40001 1.08545C4.27712 1.16102 4.17577 1.26696 4.10571 1.39306C4.03565 1.51917 3.99925 1.66119 4.00001 1.80545V22.6054C3.99925 22.7497 4.03565 22.8917 4.10571 23.0178C4.17577 23.1439 4.27712 23.2499 4.40001 23.3254C4.52284 23.3901 4.66175 23.4179 4.80001 23.4054C4.97 23.3888 5.13406 23.3341 5.28001 23.2454L19.68 12.8454C19.8629 12.6796 19.9771 12.4513 20 12.2054Z" fill="#B7AB98"/>
</svg>
