<svg width="24" height="24" viewBox="0 0 24 24" fill="none" xmlns="http://www.w3.org/2000/svg">
<g clip-path="url(#clip0_1_1061)">
<path d="M6.75 0.75H1.5C1.30109 0.75 1.11032 0.829018 0.96967 0.96967C0.829018 1.11032 0.75 1.30109 0.75 1.5V22.5C0.75 22.6989 0.829018 22.8897 0.96967 23.0303C1.11032 23.171 1.30109 23.25 1.5 23.25H6.75C6.94891 23.25 7.13968 23.171 7.28033 23.0303C7.42098 22.8897 7.5 22.6989 7.5 22.5V1.5C7.5 1.30109 7.42098 1.11032 7.28033 0.96967C7.13968 0.829018 6.94891 0.75 6.75 0.75Z" fill="#B7AB98"/>
<path d="M22.5 0.75H17.25C17.0511 0.75 16.8603 0.829018 16.7197 0.96967C16.579 1.11032 16.5 1.30109 16.5 1.5V22.5C16.5 22.6989 16.579 22.8897 16.7197 23.0303C16.8603 23.171 17.0511 23.25 17.25 23.25H22.5C22.6989 23.25 22.8897 23.171 23.0303 23.0303C23.171 22.8897 23.25 22.6989 23.25 22.5V1.5C23.25 1.30109 23.171 1.11032 23.0303 0.96967C22.8897 0.829018 22.6989 0.75 22.5 0.75Z" fill="#B7AB98"/>
</g>
<defs>
<clipPath id="clip0_1_1061">
<rect width="24" height="24" fill="white"/>
</clipPath>
</defs>
</svg>
