<svg width="24" height="24" viewBox="0 0 24 24" fill="none" xmlns="http://www.w3.org/2000/svg">
<path d="M16.5781 12.5693C16.6822 14.7607 17.625 16.7336 19.1013 18.1693C20.415 16.6534 21.2417 14.7057 21.3334 12.5693H16.5781Z" fill="#B7AB98"/>
<path d="M12.5703 11.7719H15.7707C15.8748 9.35122 16.9216 7.17217 18.5523 5.59053C16.989 4.07429 14.8905 3.1084 12.5703 3.0083V11.7719Z" fill="#B7AB98"/>
<path d="M3.00879 12.5693C3.10091 14.7057 3.92723 16.6534 5.24087 18.1693C6.71723 16.734 7.66 14.7607 7.76408 12.5693H3.00879Z" fill="#B7AB98"/>
<path d="M16.5781 11.7723H21.3334C21.2413 9.63594 20.415 7.6882 19.1013 6.17236C17.625 7.60804 16.6818 9.58091 16.5781 11.7723Z" fill="#B7AB98"/>
<path d="M8.57167 11.7719H11.772V3.0083C9.45182 3.1084 7.35334 4.07429 5.79004 5.59053C7.42073 7.17217 8.46758 9.35122 8.57167 11.7719Z" fill="#B7AB98"/>
<path d="M15.7707 12.5693H12.5703V21.333C14.8905 21.2333 16.989 20.267 18.5523 18.7507C16.9216 17.1691 15.8748 14.9901 15.7707 12.5693Z" fill="#B7AB98"/>
<path d="M7.76408 11.7723C7.66 9.58091 6.71723 7.60804 5.24087 6.17236C3.92723 7.6882 3.10091 9.63594 3.00879 11.7723H7.76408Z" fill="#B7AB98"/>
<path d="M11.772 12.5693H8.57167C8.46758 14.9901 7.42073 17.1691 5.79004 18.7507C7.35334 20.267 9.45182 21.2329 11.772 21.333V12.5693Z" fill="#B7AB98"/>
</svg>
