<svg width="24" height="24" viewBox="0 0 24 24" fill="none" xmlns="http://www.w3.org/2000/svg">
<path d="M17.0912 2.6665H6.90942C6.35229 2.6665 5.80063 2.77624 5.28591 2.98944C4.7712 3.20264 4.30351 3.51514 3.90957 3.90908C3.11396 4.70469 2.66699 5.78377 2.66699 6.90893V17.0907C2.66699 17.6479 2.77673 18.1995 2.98993 18.7143C3.20313 19.229 3.51562 19.6966 3.90957 20.0906C4.70518 20.8862 5.78426 21.3332 6.90942 21.3332H17.0912C17.6484 21.3332 18.2 21.2234 18.7147 21.0102C19.2295 20.797 19.6971 20.4845 20.0911 20.0906C20.485 19.6966 20.7975 19.229 21.0107 18.7143C21.2239 18.1995 21.3337 17.6479 21.3337 17.0907V6.90893C21.3337 6.3518 21.2239 5.80014 21.0107 5.28542C20.7975 4.77071 20.485 4.30303 20.0911 3.90908C19.6971 3.51514 19.2295 3.20264 18.7147 2.98944C18.2 2.77624 17.6484 2.6665 17.0912 2.6665ZM6.06093 6.90893C5.89312 6.90893 5.72907 6.85917 5.58954 6.76593C5.45001 6.6727 5.34125 6.54018 5.27703 6.38514C5.21281 6.2301 5.19601 6.0595 5.22875 5.89491C5.26149 5.73032 5.3423 5.57914 5.46096 5.46047C5.57962 5.34181 5.73081 5.261 5.8954 5.22826C6.05999 5.19552 6.23059 5.21233 6.38563 5.27655C6.54067 5.34076 6.67319 5.44952 6.76642 5.58905C6.85965 5.72858 6.90942 5.89263 6.90942 6.06044C6.90942 6.28548 6.82002 6.50129 6.6609 6.66041C6.50178 6.81953 6.28596 6.90893 6.06093 6.90893ZM12.0003 17.0907C10.9934 17.0907 10.0092 16.7922 9.17197 16.2328C8.33477 15.6734 7.68226 14.8783 7.29694 13.948C6.91162 13.0178 6.8108 11.9942 7.00724 11.0066C7.20367 10.0191 7.68853 9.112 8.40051 8.40002C9.11249 7.68804 10.0196 7.20318 11.0071 7.00675C11.9947 6.81031 13.0183 6.91113 13.9485 7.29645C14.8788 7.68177 15.6739 8.33428 16.2333 9.17148C16.7927 10.0087 17.0912 10.993 17.0912 11.9998C17.0912 13.35 16.5549 14.6449 15.6001 15.5997C14.6454 16.5544 13.3505 17.0907 12.0003 17.0907Z" fill="#B7AB98"/>
</svg>
