<svg width="24" height="24" viewBox="0 0 24 24" fill="none" xmlns="http://www.w3.org/2000/svg">
<path d="M7.02814 19.8291H3.44995V8.07215H7.13038V19.8291H7.02814ZM5.18793 6.43641C4.06336 6.43641 3.04102 5.5163 3.04102 4.28949C3.04102 3.16492 3.96112 2.14258 5.18793 2.14258C6.31251 2.14258 7.33485 3.06268 7.33485 4.28949C7.33485 5.5163 6.41474 6.43641 5.18793 6.43641ZM20.7275 19.8291H17.0471V14.104C17.0471 12.7749 17.0471 11.0369 15.2069 11.0369C13.2644 11.0369 13.06 12.4682 13.06 14.0017V19.8291H9.37953V8.07215H12.8555V9.7079C13.3667 8.78779 14.4912 7.86769 16.3314 7.86769C20.0119 7.86769 20.7275 10.3213 20.7275 13.4906V19.8291Z" fill="#B7AB98"/>
</svg>
