<svg width="14" height="24" viewBox="0 0 14 24" fill="none" xmlns="http://www.w3.org/2000/svg">
<path d="M2.84411 1.55217L2.84411 10.8652H2.13419C1.65032 10.8662 1.10841 11.1424 0.844395 11.4118C0.502249 11.7609 0.000917523 12.2597 -2.05958e-05 12.7534L-2.05958e-05 14.2538C-0.00238196 15.2108 0.366607 16.1299 1.02632 16.8102L3.46478 19.4705C3.86124 19.9693 4.3371 20.3966 4.87245 20.7345V23.2826C4.87245 23.4198 4.92588 23.5514 5.02097 23.6485C5.11607 23.7455 5.24505 23.8 5.37954 23.8H12.4787C12.6132 23.8 12.7422 23.7455 12.8373 23.6485C12.9324 23.5514 12.9858 23.4198 12.9858 23.2826V19.9165C13.638 19.1912 13.9999 18.2428 14 17.2586L14 10.3478C14.0008 10.0466 13.9153 9.75169 13.7541 9.49933C13.5929 9.24696 13.363 9.04812 13.0926 8.92723C12.8222 8.80634 12.5231 8.76866 12.232 8.81881C11.9408 8.86897 11.6704 9.00478 11.4539 9.20957C11.427 8.80917 11.2489 8.43506 10.9569 8.16609C10.665 7.89711 10.2821 7.75428 9.88902 7.7677C9.4959 7.78112 9.12324 7.94973 8.84958 8.23801C8.57593 8.52629 8.42265 8.91171 8.42205 9.31304C8.42335 9.01284 8.33893 8.71875 8.17911 8.4667C8.01928 8.21465 7.79096 8.01555 7.52205 7.89372C7.25314 7.7719 6.95527 7.73263 6.66484 7.7807C6.37441 7.82878 6.104 7.96212 5.88662 8.16443L5.88662 1.55217C5.88662 1.14051 5.72635 0.74571 5.44106 0.454621C5.15577 0.163532 4.76883 0 4.36537 0C3.9619 0 3.57497 0.163532 3.28967 0.454621C3.00438 0.74571 2.84411 1.14051 2.84411 1.55217Z" fill="#EB5939"/>
</svg>
