<svg width="78" height="78" viewBox="0 0 78 78" fill="none" xmlns="http://www.w3.org/2000/svg">
<path d="M28.542 12.6291L26.9657 13.2103L23.9805 5.17198L25.9805 4.43316C26.4928 4.24599 26.8967 4.12778 27.212 4.06868C27.5273 4.01942 27.7933 4.01942 28.0199 4.06868C28.4337 4.16719 28.808 4.37406 29.1332 4.66958C29.4583 4.96511 29.7046 5.32959 29.8524 5.74333C30.1381 6.5117 30.1085 7.22096 29.7736 7.87112C29.4386 8.52127 28.8376 9.00397 27.9805 9.3192L27.3992 9.53591L28.542 12.6192V12.6291ZM26.8967 8.18634L27.3105 8.02873C27.744 7.86127 28.0494 7.64455 28.2071 7.36872C28.3745 7.0929 28.3844 6.77767 28.2563 6.42304C28.1184 6.05856 27.9115 5.83199 27.6159 5.73348C27.3204 5.63497 26.946 5.67437 26.4829 5.85169L26.079 5.99945L26.8869 8.17649L26.8967 8.18634Z" fill="#B7AB98"/>
<path d="M33.9706 11.0633L32.3056 11.2997L31.0938 2.81812L33.1134 2.53244C33.7538 2.44379 34.2366 2.39453 34.5519 2.39453C34.8671 2.39453 35.1529 2.43393 35.3893 2.50289C35.9016 2.6605 36.3154 2.91663 36.6307 3.29096C36.9459 3.65544 37.1331 4.11843 37.212 4.66023C37.3105 5.32024 37.212 5.90144 36.9065 6.40384C36.6011 6.90623 36.1578 7.27071 35.5568 7.48743L38.1479 10.4722L36.1676 10.7579L33.409 7.1328L33.9706 11.0732V11.0633ZM33.3499 6.69936L33.7144 6.65011C34.3844 6.5516 34.877 6.35458 35.1923 6.06891C35.5075 5.77338 35.6258 5.39905 35.5568 4.92621C35.4878 4.47307 35.3006 4.16769 34.9755 3.99037C34.6504 3.82291 34.1873 3.77365 33.5666 3.86231L32.946 3.95097L33.34 6.69936H33.3499Z" fill="#B7AB98"/>
<path d="M43.2022 10.8559L38.5815 10.5506L39.153 2L43.7736 2.30538L43.6751 3.81256L40.7096 3.61554L40.5815 5.56602L43.547 5.76303L43.4485 7.24066L40.483 7.04365L40.3451 9.16159L43.3106 9.3586L43.2121 10.8658L43.2022 10.8559Z" fill="#B7AB98"/>
<path d="M44.2263 8.30503L45.7042 8.68922L45.6746 8.80743C45.5859 9.16206 45.5958 9.45759 45.7239 9.72356C45.8519 9.97968 46.0687 10.157 46.3741 10.2358C46.6992 10.3245 46.9849 10.2949 47.2312 10.1471C47.4677 9.99938 47.6352 9.76296 47.7239 9.42803C47.8618 8.89609 47.5859 8.40354 46.8766 7.97996C46.7879 7.92085 46.7189 7.88145 46.6598 7.84204C46.0687 7.46771 45.6648 7.06382 45.448 6.61068C45.2313 6.15754 45.2017 5.6453 45.3495 5.0838C45.5564 4.30558 45.9308 3.73423 46.4825 3.3796C47.0342 3.02497 47.6746 2.93631 48.3938 3.12347C49.0638 3.30079 49.5465 3.64557 49.8322 4.17752C50.1179 4.69961 50.1869 5.34977 50.0391 6.11814L48.5711 5.73396L48.5908 5.665C48.6598 5.39903 48.6401 5.16261 48.5219 4.95574C48.4037 4.74887 48.2165 4.61096 47.9603 4.542C47.6943 4.47304 47.4579 4.5026 47.2608 4.63066C47.0638 4.75872 46.9258 4.96559 46.847 5.25126C46.8175 5.36947 46.8076 5.48768 46.8076 5.58619C46.8076 5.6847 46.847 5.78321 46.8864 5.88172C46.9948 6.08859 47.2904 6.33486 47.7633 6.62053C47.9702 6.73875 48.1377 6.83725 48.246 6.91606C48.7682 7.26084 49.113 7.64503 49.2904 8.07846C49.4677 8.5119 49.4874 9.00445 49.3298 9.56595C49.1032 10.423 48.6894 11.0436 48.0785 11.4376C47.4677 11.8316 46.7682 11.9203 45.98 11.7233C45.2411 11.5263 44.7091 11.1224 44.384 10.5018C44.0588 9.88117 43.9997 9.16206 44.2066 8.33459L44.2263 8.30503Z" fill="#B7AB98"/>
<path d="M49.8127 9.8021L51.2018 10.4523L51.1526 10.5606C50.9949 10.8857 50.9555 11.1911 51.0343 11.4669C51.1132 11.7427 51.2905 11.9496 51.5762 12.0875C51.8816 12.2353 52.1673 12.255 52.4334 12.1565C52.6994 12.058 52.9063 11.8511 53.054 11.5359C53.2905 11.0335 53.1033 10.5114 52.4826 9.94987C52.4038 9.88091 52.3447 9.82181 52.2954 9.7824C51.7831 9.30956 51.458 8.82687 51.3299 8.34418C51.2018 7.86148 51.2609 7.35909 51.5171 6.82714C51.8619 6.09818 52.3348 5.60563 52.9457 5.35936C53.5565 5.11309 54.1969 5.14264 54.8668 5.45787C55.4974 5.7534 55.9013 6.18683 56.0885 6.75818C56.2757 7.32954 56.2264 7.96984 55.9309 8.69881L54.5614 8.04865L54.591 7.98954C54.7092 7.74327 54.7289 7.50685 54.6501 7.28028C54.5713 7.05371 54.4136 6.88625 54.1772 6.77789C53.9309 6.65968 53.6944 6.64983 53.4777 6.73848C53.2609 6.82714 53.0836 7.00446 52.9555 7.27043C52.9063 7.38864 52.8668 7.497 52.857 7.59551C52.8471 7.69402 52.857 7.80238 52.8866 7.90089C52.9555 8.12746 53.2018 8.42298 53.6156 8.78746C53.8028 8.94508 53.9407 9.07314 54.0393 9.1618C54.4826 9.59524 54.7585 10.0385 54.8471 10.4917C54.9358 10.9448 54.8668 11.4373 54.6107 11.9693C54.2363 12.7672 53.7043 13.2992 53.0343 13.575C52.3644 13.8508 51.655 13.8114 50.926 13.4666C50.2363 13.1416 49.7831 12.6392 49.5762 11.9693C49.3693 11.2994 49.4481 10.5803 49.8028 9.8021H49.8127Z" fill="#B7AB98"/>
<path d="M63.6746 18.0967L62.6598 19.0425L60.5908 16.8159L61.6056 15.8701L63.6746 18.0967Z" fill="#B7AB98"/>
<path d="M65.2611 28.2728L64.6699 26.7063L72.6896 23.6719L73.4482 25.662C73.6354 26.1645 73.7635 26.5783 73.8226 26.8935C73.8817 27.2088 73.8817 27.4748 73.8226 27.7014C73.7241 28.1152 73.527 28.4896 73.2315 28.8147C72.9359 29.1398 72.5812 29.3861 72.1576 29.5438C71.3891 29.8393 70.6798 29.8098 70.0295 29.4847C69.3793 29.1497 68.8867 28.5586 68.5615 27.7014L68.3448 27.1201L65.2709 28.2827L65.2611 28.2728ZM69.6945 26.5881L69.8522 27.0019C70.0197 27.4354 70.2364 27.7408 70.5123 27.8985C70.7881 28.0561 71.1034 28.0758 71.4581 27.9379C71.8226 27.7999 72.0492 27.5832 72.1379 27.2876C72.2265 26.9921 72.1871 26.6177 72.0197 26.1645L71.862 25.7605L69.6847 26.5881H69.6945Z" fill="#B7AB98"/>
<path d="M66.8768 33.6808L66.6206 32.0257L75.0935 30.7153L75.4088 32.7252C75.5073 33.3656 75.5565 33.8483 75.5664 34.1636C75.5664 34.4789 75.5368 34.7646 75.4679 35.001C75.3201 35.5133 75.0639 35.9271 74.6994 36.2424C74.3349 36.5577 73.8817 36.7547 73.3398 36.8434C72.6797 36.9419 72.0984 36.8434 71.5861 36.5577C71.0738 36.2621 70.7093 35.8188 70.4925 35.2178L67.527 37.8385L67.2216 35.8582L70.8176 33.0602L66.8866 33.671L66.8768 33.6808ZM71.2314 33.0109L71.2905 33.3754C71.3891 34.0454 71.596 34.538 71.8915 34.8434C72.1871 35.1488 72.5713 35.2769 73.0344 35.1981C73.4876 35.1291 73.793 34.9321 73.9605 34.6069C74.128 34.2818 74.1674 33.8089 74.0689 33.1981L73.9703 32.5774L71.2314 33.001V33.0109Z" fill="#B7AB98"/>
<path d="M67.1919 42.9112L67.4481 38.2905L76.0096 38.7733L75.7534 43.394L74.2461 43.3053L74.4135 40.3398L72.4628 40.2314L72.2953 43.1969L70.8175 43.1181L70.985 40.1526L68.8668 40.0344L68.6993 42.9999L67.1919 42.9112Z" fill="#B7AB98"/>
<path d="M69.7537 43.9158L69.3891 45.4034L69.2709 45.3739C68.9162 45.2852 68.6207 45.3049 68.3645 45.433C68.1083 45.5611 67.9409 45.7778 67.862 46.0832C67.7832 46.4084 67.8128 46.6941 67.9606 46.9305C68.1083 47.167 68.3546 47.3345 68.6896 47.4133C69.2216 47.5512 69.7044 47.2556 70.128 46.5463C70.1872 46.4576 70.2266 46.3788 70.2561 46.3295C70.6206 45.7286 71.0246 45.3246 71.4778 45.1079C71.931 44.8911 72.4334 44.8517 73.0049 44.9896C73.7832 45.1867 74.3546 45.5611 74.7192 46.1128C75.0837 46.6645 75.1724 47.2951 74.995 48.0143C74.8275 48.6842 74.4827 49.167 73.9605 49.4625C73.4384 49.7581 72.798 49.8369 72.0295 49.6891L72.4039 48.2113L72.4729 48.231C72.7389 48.3 72.9753 48.2704 73.1822 48.1522C73.3891 48.034 73.5172 47.8468 73.5861 47.5808C73.6551 47.3148 73.6256 47.0783 73.4975 46.8813C73.3694 46.6842 73.1625 46.5561 72.8669 46.4773C72.7487 46.4478 72.6305 46.4379 72.532 46.4478C72.4334 46.4576 72.3349 46.4872 72.2364 46.5364C72.0295 46.6547 71.7832 46.9502 71.5073 47.4231C71.3891 47.6399 71.2906 47.7975 71.2216 47.9157C70.8866 48.4379 70.5024 48.7926 70.0689 48.9699C69.6354 49.1473 69.1428 49.1768 68.5812 49.029C67.7241 48.8123 67.0936 48.4084 66.6995 47.7975C66.2955 47.1867 66.197 46.4872 66.3941 45.7089C66.5813 44.9699 66.9852 44.4281 67.596 44.1029C68.2167 43.7778 68.9359 43.7089 69.7635 43.8961L69.7537 43.9158Z" fill="#B7AB98"/>
<path d="M68.3056 49.521L67.6751 50.9102L67.5667 50.8609C67.2416 50.7131 66.9362 50.6737 66.6603 50.7525C66.3844 50.8314 66.1775 51.0185 66.0495 51.3043C65.9115 51.6097 65.8918 51.8954 65.9904 52.1614C66.0889 52.4274 66.2958 52.6245 66.611 52.7722C67.1135 53.0087 67.6357 52.8116 68.1874 52.191C68.2564 52.1121 68.3155 52.053 68.3549 52.0038C68.8179 51.4816 69.3007 51.1565 69.7834 51.0284C70.2662 50.8905 70.7687 50.9496 71.3007 51.1959C72.0297 51.5309 72.5223 52.0038 72.7785 52.6146C73.0347 53.2254 73.0051 53.8658 72.6997 54.5358C72.414 55.1663 71.9805 55.5801 71.4189 55.7772C70.8475 55.9742 70.2071 55.9249 69.478 55.6392L70.1086 54.2599L70.1775 54.2895C70.4238 54.4077 70.6603 54.4176 70.8869 54.3486C71.1135 54.2698 71.2711 54.1023 71.3894 53.8658C71.5076 53.6195 71.5174 53.3831 71.4288 53.1663C71.3401 52.9496 71.1529 52.7821 70.8869 52.654C70.7687 52.6047 70.6701 52.5752 70.5618 52.5653C70.4632 52.5653 70.3549 52.5653 70.2563 52.5949C70.0297 52.6639 69.7342 52.9102 69.3795 53.3338C69.2219 53.521 69.1036 53.6589 69.0051 53.7575C68.5815 54.2107 68.1381 54.4865 67.6751 54.585C67.2219 54.6836 66.7293 54.6146 66.1972 54.3683C65.3992 54.0038 64.8574 53.4816 64.5716 52.8116C64.2859 52.1417 64.3155 51.4422 64.6603 50.7033C64.9854 50.0038 65.478 49.5506 66.1381 49.3437C66.8081 49.1368 67.5273 49.1959 68.3056 49.5407V49.521Z" fill="#B7AB98"/>
<path d="M60.1378 63.4701L59.1821 62.4652L61.389 60.3667L62.3447 61.3716L60.1378 63.4701Z" fill="#B7AB98"/>
<path d="M49.99 65.1542L51.5565 64.5435L54.6796 72.5325L52.6895 73.3107C52.187 73.5078 51.7733 73.6358 51.4678 73.6949C51.1526 73.754 50.8866 73.754 50.66 73.7048C50.2462 73.6063 49.8718 73.4191 49.5368 73.1236C49.2018 72.828 48.9555 72.4734 48.7979 72.0597C48.5023 71.2913 48.5122 70.582 48.8373 69.9319C49.1624 69.2817 49.7536 68.7793 50.6107 68.4444L51.192 68.2178L49.99 65.1542ZM51.7141 69.5674L51.3003 69.725C50.8669 69.8925 50.5713 70.1191 50.4137 70.3949C50.256 70.6707 50.2462 70.9859 50.3841 71.3406C50.522 71.705 50.7388 71.9316 51.0343 72.0203C51.3299 72.1089 51.7043 72.0597 52.1575 71.8824L52.5614 71.7247L51.7141 69.5575V69.5674Z" fill="#B7AB98"/>
<path d="M44.6205 66.8193L46.2757 66.5435L47.6747 75.0054L45.6648 75.3403C45.0245 75.4486 44.5515 75.4979 44.2264 75.5078C43.9112 75.5078 43.6254 75.4881 43.389 75.4191C42.8668 75.2713 42.453 75.0251 42.1378 74.6606C41.8225 74.2961 41.6156 73.843 41.5269 73.3012C41.4186 72.651 41.5072 72.0599 41.7929 71.5477C42.0787 71.0355 42.522 70.6611 43.123 70.4346L40.4629 67.499L42.4432 67.1739L45.2806 70.7399L44.6304 66.8094L44.6205 66.8193ZM45.3397 71.1635L44.9752 71.2226C44.3052 71.331 43.8126 71.5379 43.5072 71.8334C43.2018 72.1289 43.0836 72.5131 43.1624 72.9761C43.2412 73.4292 43.4383 73.7346 43.7634 73.9021C44.0885 74.0695 44.5614 74.0991 45.1722 74.0006L45.7929 73.9021L45.3397 71.1635Z" fill="#B7AB98"/>
<path d="M35.3892 67.233L40.0099 67.4399L39.6158 76.0003L34.9951 75.7934L35.0641 74.2862L38.0296 74.4241L38.1183 72.4737L35.1528 72.3358L35.2217 70.8483L38.1872 70.9862L38.2857 68.8682L35.3202 68.7303L35.3892 67.2231V67.233Z" fill="#B7AB98"/>
<path d="M34.3843 69.8036L32.8966 69.449L32.9262 69.3308C33.0148 68.9761 32.9853 68.6708 32.8572 68.4245C32.7291 68.1782 32.5025 68.0009 32.1971 67.932C31.872 67.8531 31.5863 67.8926 31.3498 68.0403C31.1134 68.1881 30.9557 68.4343 30.867 68.7693C30.739 69.3111 31.0345 69.7839 31.7439 70.2075C31.8326 70.2666 31.9114 70.306 31.9606 70.3356C32.5616 70.6902 32.9754 71.0941 33.1922 71.5472C33.4188 71.9905 33.4582 72.5028 33.3202 73.0741C33.1331 73.8523 32.7685 74.4335 32.2168 74.798C31.6749 75.1723 31.0345 75.261 30.3153 75.0935C29.6355 74.9261 29.1528 74.5911 28.8572 74.069C28.5616 73.5469 28.473 72.9066 28.6109 72.1383L30.0887 72.4929L30.069 72.5619C30.0001 72.8278 30.0296 73.0643 30.1577 73.2613C30.2759 73.4681 30.4631 73.5962 30.7291 73.6553C30.9951 73.7243 31.2316 73.6849 31.4188 73.5568C31.6158 73.4287 31.7439 73.212 31.8129 72.9263C31.8424 72.8081 31.8523 72.6899 31.8424 72.5914C31.8424 72.4929 31.803 72.3944 31.7537 72.3057C31.6355 72.0989 31.34 71.8526 30.8572 71.5866C30.6404 71.4684 30.4828 71.3798 30.3646 71.301C29.8424 70.966 29.4779 70.5917 29.3006 70.1582C29.1134 69.7347 29.0937 69.2323 29.2217 68.6708C29.4286 67.8137 29.8326 67.1833 30.4336 66.7696C31.0345 66.3558 31.734 66.2573 32.5222 66.4445C33.271 66.6218 33.803 67.0158 34.1478 67.6364C34.4828 68.2472 34.5616 68.9761 34.3744 69.8036H34.3843Z" fill="#B7AB98"/>
<path d="M28.7884 68.4146L27.3894 67.794L27.4387 67.6856C27.5865 67.3606 27.616 67.0552 27.5372 66.7793C27.4584 66.5035 27.2712 66.2967 26.9855 66.1686C26.6801 66.0307 26.3944 66.011 26.1283 66.1193C25.8623 66.2277 25.6653 66.4346 25.5274 66.7498C25.3008 67.2522 25.4978 67.7743 26.1283 68.3161C26.2072 68.385 26.2761 68.4441 26.3155 68.4836C26.8377 68.9465 27.1727 69.4194 27.3106 69.9021C27.4485 70.3848 27.3993 70.8872 27.1628 71.4191C26.8377 72.1579 26.3648 72.6505 25.7638 72.9164C25.153 73.1824 24.5126 73.1627 23.8426 72.8573C23.2121 72.5717 22.7885 72.1481 22.5914 71.5866C22.3944 71.0251 22.4338 70.3749 22.7096 69.646L24.0988 70.2666L24.0692 70.3355C23.9609 70.5818 23.9412 70.8182 24.02 71.0448C24.0988 71.2713 24.2663 71.429 24.5126 71.5373C24.7589 71.6457 24.9953 71.6555 25.2121 71.5669C25.4288 71.4782 25.5963 71.2911 25.7146 71.0152C25.7638 70.897 25.7934 70.7887 25.8032 70.6901C25.8032 70.5916 25.8032 70.4833 25.7638 70.3848C25.685 70.1582 25.4387 69.8627 25.0151 69.5179C24.8279 69.3603 24.6801 69.2421 24.5816 69.1534C24.1284 68.7298 23.8426 68.2865 23.7441 67.8334C23.6357 67.3803 23.7047 66.8877 23.9412 66.3558C24.3057 65.548 24.818 65.0062 25.4781 64.7107C26.1481 64.425 26.8476 64.4447 27.5963 64.7796C28.2958 65.0949 28.749 65.5775 28.9756 66.2474C29.2022 66.9173 29.1333 67.6364 28.7983 68.4146H28.7884Z" fill="#B7AB98"/>
<path d="M14.7485 60.4059L15.7436 59.4404L17.8618 61.6178L16.8668 62.5833L14.7485 60.4059Z" fill="#B7AB98"/>
<path d="M12.9556 50.2695L13.5862 51.8262L5.63545 55.0281L4.83742 53.0478C4.63053 52.5454 4.50245 52.1414 4.44333 51.8262C4.38422 51.5109 4.37437 51.2449 4.42363 51.0183C4.5123 50.6045 4.69949 50.2203 4.99506 49.8951C5.28077 49.5602 5.63545 49.3139 6.04924 49.1464C6.80786 48.841 7.51722 48.8508 8.17731 49.1661C8.83741 49.4912 9.33987 50.0725 9.67485 50.9198L9.9113 51.501L12.9655 50.2695H12.9556ZM8.56155 52.0429L8.39406 51.6291C8.21672 51.1956 7.99012 50.9001 7.71426 50.7424C7.42855 50.5848 7.11328 50.5749 6.76845 50.7227C6.40392 50.8705 6.18717 51.0873 6.0985 51.3828C6.00983 51.6784 6.05909 52.0528 6.24628 52.506L6.40392 52.9099L8.56155 52.0429Z" fill="#B7AB98"/>
<path d="M11.2219 44.8906L11.5076 46.5455L3.06425 48.0231L2.70957 46.0136C2.60119 45.3732 2.53223 44.9004 2.52237 44.5753C2.51252 44.2502 2.54208 43.9744 2.60119 43.738C2.73912 43.2159 2.99528 42.8022 3.34996 42.4771C3.70464 42.152 4.15784 41.9451 4.69971 41.8565C5.34995 41.7383 5.94108 41.8269 6.4534 42.1028C6.96571 42.3786 7.34995 42.8219 7.57655 43.4129L10.4829 40.7236L10.8278 42.6938L7.29083 45.5604L11.212 44.8709L11.2219 44.8906ZM6.88689 45.6491L6.81793 45.2846C6.6997 44.6147 6.49281 44.132 6.18739 43.8267C5.88197 43.5213 5.49773 43.4129 5.03468 43.4917C4.58148 43.5705 4.28592 43.7774 4.11843 44.1025C3.95094 44.4276 3.93124 44.9004 4.03961 45.5112L4.14799 46.1219L6.87704 45.6392L6.88689 45.6491Z" fill="#B7AB98"/>
<path d="M10.7193 35.6999L10.5616 40.3304L1.99023 40.0348L2.14787 35.4043L3.65525 35.4536L3.55673 38.4191L5.50746 38.488L5.60599 35.5225L7.09367 35.5718L6.98529 38.5373L9.10351 38.6063L9.20203 35.6408L10.7094 35.69L10.7193 35.6999Z" fill="#B7AB98"/>
<path d="M8.13819 34.716L8.47317 33.2185L8.5914 33.2481C8.94607 33.3269 9.25149 33.2973 9.4978 33.1692C9.75395 33.0313 9.91159 32.8146 9.98055 32.5091C10.0594 32.184 10.02 31.8983 9.86233 31.6619C9.70469 31.4254 9.46824 31.2678 9.12341 31.1889C8.58154 31.0707 8.10864 31.3663 7.69485 32.0855C7.64559 32.1742 7.59632 32.253 7.56677 32.3022C7.21209 32.9032 6.818 33.3269 6.37465 33.5535C5.93131 33.7801 5.41899 33.8293 4.84757 33.7013C4.05939 33.5239 3.48796 33.1594 3.10373 32.6175C2.72935 32.0756 2.62097 31.4451 2.78846 30.716C2.94609 30.0362 3.28107 29.5436 3.79338 29.2481C4.3057 28.9426 4.95594 28.854 5.72441 28.9821L5.37958 30.4599L5.31062 30.4402C5.04461 30.3811 4.80816 30.4106 4.61111 30.5288C4.41407 30.6569 4.27614 30.8441 4.21703 31.1003C4.15791 31.3663 4.18747 31.6027 4.3254 31.7899C4.45348 31.987 4.67023 32.115 4.95594 32.184C5.07417 32.2136 5.19239 32.2234 5.29091 32.2136C5.38944 32.2037 5.48796 32.1742 5.57663 32.1151C5.78352 31.9968 6.01998 31.7013 6.28598 31.2185C6.39436 31.0018 6.49288 30.8343 6.56185 30.7259C6.88697 30.1939 7.26135 29.8392 7.69485 29.6422C8.11849 29.455 8.62095 29.4254 9.18253 29.5535C10.0397 29.7505 10.6801 30.1446 11.0939 30.7456C11.5076 31.3466 11.6259 32.0362 11.4387 32.8343C11.2712 33.583 10.8771 34.1249 10.2663 34.4697C9.65543 34.8145 8.93622 34.8934 8.09879 34.716H8.13819Z" fill="#B7AB98"/>
<path d="M9.4681 29.1009L10.0691 27.6921L10.1873 27.7413C10.5223 27.8891 10.8178 27.9187 11.0937 27.83C11.3696 27.7413 11.5666 27.5541 11.6947 27.2684C11.8326 26.963 11.8425 26.6773 11.7341 26.4113C11.6257 26.1551 11.4188 25.9482 11.0937 25.8103C10.5814 25.5936 10.0691 25.8005 9.52721 26.431C9.45825 26.5098 9.39913 26.5788 9.35972 26.6182C8.90652 27.1502 8.43362 27.4852 7.95086 27.6231C7.46811 27.761 6.96564 27.7216 6.42377 27.4852C5.68486 27.1601 5.1824 26.7069 4.91639 26.096C4.65038 25.495 4.66023 24.8547 4.9558 24.1749C5.23166 23.5345 5.6553 23.1108 6.21688 22.9138C6.77845 22.7069 7.4287 22.7364 8.16761 23.0123L7.55677 24.4015L7.48781 24.3719C7.23165 24.2635 6.9952 24.2537 6.77845 24.3325C6.5617 24.4113 6.39422 24.5788 6.28584 24.8251C6.17747 25.0813 6.16762 25.3079 6.26614 25.5246C6.36466 25.7413 6.542 25.9088 6.81786 26.0271C6.93609 26.0763 7.04446 26.1059 7.14298 26.1157C7.2415 26.1157 7.34988 26.1157 7.4484 26.0763C7.675 25.9975 7.96071 25.7512 8.30554 25.3177C8.45332 25.1305 8.5814 24.9827 8.67007 24.8842C9.08386 24.4212 9.52721 24.1354 9.98041 24.0271C10.4336 23.9187 10.9262 23.9778 11.4582 24.2143C12.2661 24.5689 12.8178 25.0714 13.1134 25.7413C13.409 26.4014 13.3991 27.1108 13.074 27.8596C12.7686 28.5591 12.2858 29.0221 11.6257 29.2487C10.9656 29.4753 10.2366 29.4162 9.44839 29.0911L9.4681 29.1009Z" fill="#B7AB98"/>
<path d="M17.35 14.9736L18.3254 15.9589L16.1677 18.0968L15.1924 17.1116L17.35 14.9736Z" fill="#B7AB98"/>
</svg>
