<svg width="24" height="24" viewBox="0 0 24 24" fill="none" xmlns="http://www.w3.org/2000/svg">
<path d="M19.2611 11.3279L6.57538 3.39932C6.45536 3.32431 6.31745 3.2828 6.17597 3.27908C6.03449 3.27537 5.8946 3.30959 5.77081 3.3782C5.64702 3.44681 5.54386 3.5473 5.47202 3.66924C5.40019 3.79119 5.3623 3.93014 5.3623 4.07167V19.9288C5.3623 20.0703 5.40019 20.2093 5.47202 20.3312C5.54386 20.4532 5.64702 20.5536 5.77081 20.6223C5.8946 20.6909 6.03449 20.7251 6.17597 20.7214C6.31745 20.7177 6.45536 20.6761 6.57538 20.6011L19.2611 12.6726C19.3758 12.6015 19.4705 12.5022 19.5361 12.3843C19.6018 12.2664 19.6363 12.1336 19.6363 11.9986C19.6363 11.8637 19.6018 11.7309 19.5361 11.613C19.4705 11.495 19.3758 11.3958 19.2611 11.3247V11.3279Z" fill="#B7AB98"/>
</svg>
